<?xml version="1.0" standalone="no"?>
<!DOCTYPE svg PUBLIC "-//W3C//DTD SVG 1.1//EN"
  "http://www.w3.org/Graphics/SVG/1.1/DTD/svg11.dtd">
<svg width="112mm" height="131.99999999999997mm" viewBox="-54 -67.99999999999999 112 131.99999999999997" xmlns="http://www.w3.org/2000/svg" version="1.1">
	<title>svgOutput</title>
	<desc>made with tinkercad</desc>
<path d="M 41.99800109863281 -66.99999999999999 L 41.99800109863281 -57.9980010986328 L 41.99800109863281 -43.998001098632805 L 41.99800109863281 28.003000259399407 L 57 28.003000259399407 L 57 62.999999999999986 L 41.99800109863281 62.999999999999986 L 32.99800109863281 62.999999999999986 L -0.003000000026077032 62.999999999999986 L -33.00299835205078 62.999999999999986 L -37.99800109863281 62.999999999999986 L -53 62.999999999999986 L -53 28.003000259399407 L -37.99800109863281 28.003000259399407 L -37.99800109863281 -66.99999999999999 L -33.00299835205078 -66.99999999999999 L -28.99799919128418 -66.99999999999999 L -0.003000000026077032 -66.99999999999999 L 4.002999782562256 -66.99999999999999 L 32.99800109863281 -66.99999999999999 L 37.00299835205078 -66.99999999999999 L 41.99800109863281 -66.99999999999999 M -32.849998474121094 -59.234001159667955 L -32.768001556396484 -59.06787872314452 L -32.73400115966797 -58.99900054931639 L -32.5890007019043 -58.780998229980455 L -32.41600036621094 -58.58399963378905 L -32.21900177001953 -58.41099929809569 L -32.000999450683594 -58.26599884033202 L -31.766000747680664 -58.15000152587889 L -31.51799964904785 -58.06600189208983 L -31.26099967956543 -58.01499938964842 L -31 -57.9980010986328 L -30.73900032043457 -58.01499938964842 L -30.719999313354492 -58.018772125244126 L -30.48200035095215 -58.06600189208983 L -30.233999252319336 -58.15000152587889 L -29.999000549316406 -58.26599884033202 L -29.7810001373291 -58.41099929809569 L -29.583999633789062 -58.58399963378905 L -29.410999298095703 -58.780998229980455 L -29.266000747680664 -58.99900054931639 L -29.149999618530273 -59.234001159667955 L -29.09648323059082 -59.39199829101561 L -29.06599998474121 -59.4819984436035 L -29.014999389648438 -59.73899841308592 L -28.99799919128418 -59.999999999999986 L -29.014999389648438 -60.26100158691405 L -29.06599998474121 -60.51800155639647 L -29.149999618530273 -60.76599884033202 L -29.266000747680664 -61.00099945068358 L -29.410999298095703 -61.21900177001952 L -29.583999633789062 -61.41600036621092 L -29.611330032348633 -61.43999862670897 L -29.7810001373291 -61.58900070190428 L -29.999000549316406 -61.734001159667955 L -30.233999252319336 -61.84999847412108 L -30.48200035095215 -61.93399810791014 L -30.73900032043457 -61.98500061035155 L -31 -62.00299835205077 L -31.26099967956543 -61.98500061035155 L -31.51799964904785 -61.93399810791014 L -31.766000747680664 -61.84999847412108 L -32.000999450683594 -61.734001159667955 L -32.21900177001953 -61.58900070190428 L -32.388671875 -61.43999862670897 L -32.41600036621094 -61.41600036621092 L -32.5890007019043 -61.21900177001952 L -32.73400115966797 -61.00099945068358 L -32.768001556396484 -60.932121276855455 L -32.849998474121094 -60.76599884033202 L -32.933998107910156 -60.51800155639647 L -32.98500061035156 -60.26100158691405 L -33.00299835205078 -59.999999999999986 L -32.98500061035156 -59.73899841308592 L -32.933998107910156 -59.4819984436035 L -32.849998474121094 -59.234001159667955 M 34.816001892089844 -58.009983062744126 L 35 -57.9980010986328 L 35.26100158691406 -58.01499938964842 L 35.518001556396484 -58.06600189208983 L 35.76599884033203 -58.15000152587889 L 36.000999450683594 -58.26599884033202 L 36.21900177001953 -58.41099929809569 L 36.41600036621094 -58.58399963378905 L 36.5890007019043 -58.780998229980455 L 36.73400115966797 -58.99900054931639 L 36.849998474121094 -59.234001159667955 L 36.86399841308594 -59.275333404541 L 36.933998107910156 -59.4819984436035 L 36.98500061035156 -59.73899841308592 L 37.00299835205078 -59.999999999999986 L 36.98500061035156 -60.26100158691405 L 36.933998107910156 -60.51800155639647 L 36.86399841308594 -60.72466659545897 L 36.849998474121094 -60.76599884033202 L 36.73400115966797 -61.00099945068358 L 36.5890007019043 -61.21900177001952 L 36.41600036621094 -61.41600036621092 L 36.388671875 -61.43999862670897 L 36.21900177001953 -61.58900070190428 L 36.000999450683594 -61.734001159667955 L 35.76599884033203 -61.84999847412108 L 35.518001556396484 -61.93399810791014 L 35.26100158691406 -61.98500061035155 L 35 -62.00299835205077 L 34.73899841308594 -61.98500061035155 L 34.481998443603516 -61.93399810791014 L 34.23400115966797 -61.84999847412108 L 33.999000549316406 -61.734001159667955 L 33.78099822998047 -61.58900070190428 L 33.611328125 -61.43999862670897 L 33.58399963378906 -61.41600036621092 L 33.4109992980957 -61.21900177001952 L 33.26599884033203 -61.00099945068358 L 33.150001525878906 -60.76599884033202 L 33.066001892089844 -60.51800155639647 L 33.01499938964844 -60.26100158691405 L 32.99800109863281 -59.999999999999986 L 33.01499938964844 -59.73899841308592 L 33.066001892089844 -59.4819984436035 L 33.09648513793945 -59.39199829101561 L 33.150001525878906 -59.234001159667955 L 33.26599884033203 -58.99900054931639 L 33.4109992980957 -58.780998229980455 L 33.58399963378906 -58.58399963378905 L 33.78099822998047 -58.41099929809569 L 33.999000549316406 -58.26599884033202 L 34.23400115966797 -58.15000152587889 L 34.481998443603516 -58.06600189208983 L 34.73899841308594 -58.01499938964842 L 34.816001892089844 -58.009983062744126 M -5.017902059477688e-16 -60.04349899291991 L -0.003000000026077032 -59.999999999999986 L 5.017902059477688e-16 -59.956501007080064 L 0.014999999664723873 -59.73899841308592 L 0.06599999964237213 -59.4819984436035 L 0.09648387134075165 -59.39199829101561 L 0.15000000596046448 -59.234001159667955 L 0.26600000262260437 -58.99900054931639 L 0.41100001335144043 -58.780998229980455 L 0.5839999914169312 -58.58399963378905 L 0.781000018119812 -58.41099929809569 L 0.9990000128746033 -58.26599884033202 L 1.2339999675750732 -58.15000152587889 L 1.4819999933242798 -58.06600189208983 L 1.7389999628067017 -58.01499938964842 L 2 -57.9980010986328 L 2.0480000972747803 -58.001125335693345 L 2.260999917984009 -58.01499938964842 L 2.5179998874664307 -58.06600189208983 L 2.7660000324249268 -58.15000152587889 L 3.000999927520752 -58.26599884033202 L 3.2190001010894775 -58.41099929809569 L 3.4159998893737793 -58.58399963378905 L 3.5889999866485596 -58.780998229980455 L 3.7339999675750732 -58.99900054931639 L 3.8499999046325684 -59.234001159667955 L 3.9035160541534424 -59.39199829101561 L 3.934000015258789 -59.4819984436035 L 3.984999895095825 -59.73899841308592 L 4.002999782562256 -59.999999999999986 L 3.984999895095825 -60.26100158691405 L 3.934000015258789 -60.51800155639647 L 3.8499999046325684 -60.76599884033202 L 3.7339999675750732 -61.00099945068358 L 3.5889999866485596 -61.21900177001952 L 3.4159998893737793 -61.41600036621092 L 3.3886704444885254 -61.43999862670897 L 3.2190001010894775 -61.58900070190428 L 3.000999927520752 -61.734001159667955 L 2.7660000324249268 -61.84999847412108 L 2.5179998874664307 -61.93399810791014 L 2.260999917984009 -61.98500061035155 L 2 -62.00299835205077 L 1.7389999628067017 -61.98500061035155 L 1.4819999933242798 -61.93399810791014 L 1.2339999675750732 -61.84999847412108 L 0.9990000128746033 -61.734001159667955 L 0.781000018119812 -61.58900070190428 L 0.6113294959068298 -61.43999862670897 L 0.5839999914169312 -61.41600036621092 L 0.41100001335144043 -61.21900177001952 L 0.26600000262260437 -61.00099945068358 L 0.15000000596046448 -60.76599884033202 L 0.06599999964237213 -60.51800155639647 L 0.014999999664723873 -60.26100158691405 L -5.017902059477688e-16 -60.04349899291991 M 34.816001892089844 -44.00998306274413 L 35 -43.998001098632805 L 35.26100158691406 -44.01499938964843 L 35.518001556396484 -44.06600189208984 L 35.76599884033203 -44.1500015258789 L 36.000999450683594 -44.265998840332024 L 36.21900177001953 -44.410999298095696 L 36.41600036621094 -44.583999633789055 L 36.5890007019043 -44.78099822998046 L 36.73400115966797 -44.9990005493164 L 36.76213455200195 -45.05599975585937 L 36.849998474121094 -45.23400115966796 L 36.86399841308594 -45.27533340454101 L 36.933998107910156 -45.48199844360351 L 36.98500061035156 -45.73899841308593 L 37.00299835205078 -45.99999999999999 L 36.98500061035156 -46.261001586914055 L 36.933998107910156 -46.51800155639648 L 36.86399841308594 -46.72466659545898 L 36.849998474121094 -46.765998840332024 L 36.73400115966797 -47.00099945068359 L 36.5890007019043 -47.219001770019524 L 36.41600036621094 -47.41600036621093 L 36.21900177001953 -47.58900070190429 L 36.000999450683594 -47.73400115966796 L 35.76599884033203 -47.84999847412109 L 35.518001556396484 -47.93399810791015 L 35.26100158691406 -47.985000610351555 L 35 -48.00299835205077 L 34.816001892089844 -47.990310668945305 L 34.73899841308594 -47.985000610351555 L 34.481998443603516 -47.93399810791015 L 34.23400115966797 -47.84999847412109 L 33.999000549316406 -47.73400115966796 L 33.78099822998047 -47.58900070190429 L 33.58399963378906 -47.41600036621093 L 33.4109992980957 -47.219001770019524 L 33.334510803222656 -47.10400009155273 L 33.26599884033203 -47.00099945068359 L 33.150001525878906 -46.765998840332024 L 33.066001892089844 -46.51800155639648 L 33.01499938964844 -46.261001586914055 L 32.99800109863281 -45.99999999999999 L 33.01499938964844 -45.73899841308593 L 33.066001892089844 -45.48199844360351 L 33.150001525878906 -45.23400115966796 L 33.23786544799805 -45.05599975585937 L 33.26599884033203 -44.9990005493164 L 33.4109992980957 -44.78099822998046 L 33.58399963378906 -44.583999633789055 L 33.78099822998047 -44.410999298095696 L 33.999000549316406 -44.265998840332024 L 34.23400115966797 -44.1500015258789 L 34.481998443603516 -44.06600189208984 L 34.73899841308594 -44.01499938964843 L 34.816001892089844 -44.00998306274413 M 0 -46.043498992919915 L -0.003000000026077032 -45.99999999999999 L 0 -45.95650100708007 L 0.014999999664723873 -45.73899841308593 L 0.06599999964237213 -45.48199844360351 L 0.15000000596046448 -45.23400115966796 L 0.23786382377147675 -45.05599975585937 L 0.26600000262260437 -44.9990005493164 L 0.41100001335144043 -44.78099822998046 L 0.5839999914169312 -44.583999633789055 L 0.781000018119812 -44.410999298095696 L 0.9990000128746033 -44.265998840332024 L 1.2339999675750732 -44.1500015258789 L 1.4819999933242798 -44.06600189208984 L 1.7389999628067017 -44.01499938964843 L 2 -43.998001098632805 L 2.0480000972747803 -44.00112533569335 L 2.260999917984009 -44.01499938964843 L 2.5179998874664307 -44.06600189208984 L 2.7660000324249268 -44.1500015258789 L 3.000999927520752 -44.265998840332024 L 3.2190001010894775 -44.410999298095696 L 3.4159998893737793 -44.583999633789055 L 3.5889999866485596 -44.78099822998046 L 3.7339999675750732 -44.9990005493164 L 3.762136220932007 -45.05599975585937 L 3.8499999046325684 -45.23400115966796 L 3.934000015258789 -45.48199844360351 L 3.984999895095825 -45.73899841308593 L 4.002999782562256 -45.99999999999999 L 3.984999895095825 -46.261001586914055 L 3.934000015258789 -46.51800155639648 L 3.8499999046325684 -46.765998840332024 L 3.7339999675750732 -47.00099945068359 L 3.6654908657073975 -47.10400009155273 L 3.5889999866485596 -47.219001770019524 L 3.4159998893737793 -47.41600036621093 L 3.2190001010894775 -47.58900070190429 L 3.000999927520752 -47.73400115966796 L 2.7660000324249268 -47.84999847412109 L 2.5179998874664307 -47.93399810791015 L 2.260999917984009 -47.985000610351555 L 2.0480000972747803 -47.99969100952148 L 2 -48.00299835205077 L 1.7389999628067017 -47.985000610351555 L 1.4819999933242798 -47.93399810791015 L 1.2339999675750732 -47.84999847412109 L 0.9990000128746033 -47.73400115966796 L 0.781000018119812 -47.58900070190429 L 0.5839999914169312 -47.41600036621093 L 0.41100001335144043 -47.219001770019524 L 0.3345091640949249 -47.10400009155273 L 0.26600000262260437 -47.00099945068359 L 0.15000000596046448 -46.765998840332024 L 0.06599999964237213 -46.51800155639648 L 0.014999999664723873 -46.261001586914055 L 0 -46.043498992919915 M -31.26099967956543 -44.01499938964843 L -31 -43.998001098632805 L -30.73900032043457 -44.01499938964843 L -30.719999313354492 -44.01877212524413 L -30.48200035095215 -44.06600189208984 L -30.233999252319336 -44.1500015258789 L -29.999000549316406 -44.265998840332024 L -29.7810001373291 -44.410999298095696 L -29.583999633789062 -44.583999633789055 L -29.410999298095703 -44.78099822998046 L -29.266000747680664 -44.9990005493164 L -29.237863540649414 -45.05599975585937 L -29.149999618530273 -45.23400115966796 L -29.06599998474121 -45.48199844360351 L -29.014999389648438 -45.73899841308593 L -28.99799919128418 -45.99999999999999 L -29.014999389648438 -46.261001586914055 L -29.06599998474121 -46.51800155639648 L -29.149999618530273 -46.765998840332024 L -29.266000747680664 -47.00099945068359 L -29.334508895874023 -47.10400009155273 L -29.410999298095703 -47.219001770019524 L -29.583999633789062 -47.41600036621093 L -29.7810001373291 -47.58900070190429 L -29.999000549316406 -47.73400115966796 L -30.233999252319336 -47.84999847412109 L -30.48200035095215 -47.93399810791015 L -30.719999313354492 -47.98122787475585 L -30.73900032043457 -47.985000610351555 L -31 -48.00299835205077 L -31.26099967956543 -47.985000610351555 L -31.51799964904785 -47.93399810791015 L -31.766000747680664 -47.84999847412109 L -32.000999450683594 -47.73400115966796 L -32.21900177001953 -47.58900070190429 L -32.41600036621094 -47.41600036621093 L -32.5890007019043 -47.219001770019524 L -32.73400115966797 -47.00099945068359 L -32.768001556396484 -46.93212127685546 L -32.849998474121094 -46.765998840332024 L -32.933998107910156 -46.51800155639648 L -32.98500061035156 -46.261001586914055 L -33.00299835205078 -45.99999999999999 L -32.98500061035156 -45.73899841308593 L -32.933998107910156 -45.48199844360351 L -32.849998474121094 -45.23400115966796 L -32.768001556396484 -45.067878723144524 L -32.76213455200195 -45.05599975585937 L -32.73400115966797 -44.9990005493164 L -32.5890007019043 -44.78099822998046 L -32.41600036621094 -44.583999633789055 L -32.21900177001953 -44.410999298095696 L -32.000999450683594 -44.265998840332024 L -31.766000747680664 -44.1500015258789 L -31.51799964904785 -44.06600189208984 L -31.26099967956543 -44.01499938964843 z" fill="none" stroke="rgb(255,0,0)" stroke-width="0.001mm" />
</svg>